<?xml version="1.0" encoding="utf-8"?>
<!-- Generator: Adobe Illustrator 27.5.0, SVG Export Plug-In . SVG Version: 6.00 Build 0)  -->
<svg version="1.1" xmlns="http://www.w3.org/2000/svg" xmlns:xlink="http://www.w3.org/1999/xlink" x="0px" y="0px"
	 viewBox="0 0 2500 2500" style="enable-background:new 0 0 2500 2500;" xml:space="preserve">
<g id="Background">
	<rect style="fill:#FFFFFF;" width="2500" height="2500"/>
</g>
<g id="Illustration">
	<g id="Order_placed_1_">
		<circle style="fill:#F2E6DC;" cx="1250" cy="1250" r="915"/>
		<g>
			<g>
				<rect x="1278.682" y="437.579" style="fill:#E6D0BE;" width="677.068" height="1277.336"/>
				<path style="fill:#363E44;" d="M1926.161,1792.545h-622.574c-43.375,0-78.664-35.288-78.664-78.663V426.471
					c0-43.375,35.289-78.664,78.664-78.664h622.574c43.375,0,78.664,35.288,78.664,78.664v1287.411
					C2004.825,1757.257,1969.536,1792.545,1926.161,1792.545z M1303.587,352.217c-40.944,0-74.254,33.31-74.254,74.254v1287.411
					c0,40.944,33.31,74.254,74.254,74.254h622.574c40.944,0,74.254-33.31,74.254-74.254V426.471
					c0-40.944-33.31-74.254-74.254-74.254H1303.587z"/>
			</g>
			<g>
				<path style="fill:#FFFFFF;" d="M1392.949,662.025h-1.071c-20.708,0-37.495-16.787-37.495-37.495v-186.95h76.062v186.95
					C1430.444,645.237,1413.657,662.025,1392.949,662.025z"/>
				<path style="fill:#D87355;" d="M1316.887,662.025h-1.071c-20.708,0-37.496-16.787-37.496-37.495v-186.95h76.062v186.95
					C1354.382,645.237,1337.595,662.025,1316.887,662.025z"/>
				<path style="fill:#D87355;" d="M1467.993,662.025h-1.071c-20.708,0-37.495-16.787-37.495-37.495v-186.95h76.062v186.95
					C1505.488,645.237,1488.701,662.025,1467.993,662.025z"/>
				<path style="fill:#FFFFFF;" d="M1543.036,662.025h-1.071c-20.708,0-37.495-16.787-37.495-37.495v-186.95h76.062v186.95
					C1580.532,645.237,1563.745,662.025,1543.036,662.025z"/>
				<path style="fill:#D87355;" d="M1618.08,662.025h-1.071c-20.708,0-37.495-16.787-37.495-37.495v-186.95h76.062v186.95
					C1655.575,645.237,1638.788,662.025,1618.08,662.025z"/>
				<path style="fill:#FFFFFF;" d="M1693.124,662.025h-1.071c-20.708,0-37.495-16.787-37.495-37.495v-186.95h76.062v186.95
					C1730.619,645.237,1713.832,662.025,1693.124,662.025z"/>
				<path style="fill:#D87355;" d="M1768.167,662.025h-1.071c-20.708,0-37.495-16.787-37.495-37.495v-186.95h76.062v186.95
					C1805.663,645.237,1788.875,662.025,1768.167,662.025z"/>
				<path style="fill:#FFFFFF;" d="M1843.211,662.025h-1.071c-20.708,0-37.495-16.787-37.495-37.495v-186.95h76.062v186.95
					C1880.707,645.237,1863.919,662.025,1843.211,662.025z"/>
				<path style="fill:#D87355;" d="M1918.255,662.025h-1.071c-20.708,0-37.495-16.787-37.495-37.495v-186.95h76.062v186.95
					C1955.75,645.237,1938.963,662.025,1918.255,662.025z"/>
				<path style="fill:#D87355;" d="M1955.516,439.784h-676.834c-1.218,0-2.205-0.987-2.205-2.205c0-1.218,0.987-2.205,2.205-2.205
					h676.834c1.218,0,2.205,0.987,2.205,2.205C1957.721,438.797,1956.734,439.784,1955.516,439.784z"/>
			</g>
			<g>
				<path style="fill:#FFFFFF;" d="M1817.67,1603.899h-403.677c-1.218,0-2.205-0.987-2.205-2.205v-403.493
					c0-1.218,0.987-2.205,2.205-2.205h403.677c1.218,0,2.205,0.987,2.205,2.205v403.493
					C1819.875,1602.912,1818.887,1603.899,1817.67,1603.899z M1416.198,1599.49h399.267v-399.084h-399.267V1599.49z"/>
				<polygon style="fill:#D87355;" points="1594.178,1540.696 1467.793,1425.791 1506.839,1377.666 1586.973,1441.701 
					1712.713,1259.199 1763.869,1294.412 				"/>
			</g>
			<g>
				<g>
					<g>
						<g>
							<path style="fill:#363E44;" d="M1505.677,1024.68c-1.018,0-1.916-0.704-2.148-1.713l-52.745-230.74l-65.276,0.623
								c-1.299,0.027-2.213-0.967-2.226-2.184c-0.012-1.218,0.966-2.214,2.183-2.226l67.051-0.639c0.007,0,0.015,0,0.021,0
								c1.027,0,1.92,0.71,2.15,1.713l52.713,230.604l237.822-20.007l-0.122-150.885l-71.806,0.059c-0.001,0-0.002,0-0.002,0
								c-1.216,0-2.204-0.986-2.205-2.203c-0.001-1.218,0.985-2.205,2.203-2.206l74.011-0.06c0.001,0,0.002,0,0.002,0
								c0.584,0,1.144,0.232,1.558,0.644c0.413,0.413,0.647,0.974,0.647,1.559l0.126,155.118c0.001,1.147-0.877,2.103-2.02,2.199
								l-241.752,20.338C1505.802,1024.678,1505.74,1024.68,1505.677,1024.68z"/>
							<path style="fill:#363E44;" d="M1684.602,1009.628c-1.148,0-2.115-0.888-2.197-2.05l-11.166-158.187l-205.613,0.062
								c-1.218,0.001-2.206-0.987-2.206-2.204s0.986-2.205,2.204-2.205l207.67-0.062c1.158-0.001,2.119,0.895,2.201,2.05
								l11.31,160.237c0.086,1.214-0.83,2.269-2.044,2.354C1684.707,1009.627,1684.654,1009.628,1684.602,1009.628z"/>
							<path style="fill:#363E44;" d="M1484.927,1131.301c-22.727,0-41.225-18.479-41.243-41.209
								c-0.018-22.741,18.469-41.257,41.209-41.276c0.012,0,0.024,0,0.035,0c11.004,0,21.35,4.28,29.139,12.056
								c7.796,7.784,12.094,18.137,12.103,29.154c0.018,22.741-18.469,41.257-41.209,41.276
								C1484.949,1131.301,1484.938,1131.301,1484.927,1131.301z M1484.928,1053.224c-0.011,0-0.02,0-0.031,0
								c-20.31,0.017-36.82,16.553-36.804,36.864c0.016,20.298,16.538,36.801,36.834,36.803c0.011,0,0.018,0,0.029,0
								c20.31-0.017,36.82-16.553,36.804-36.863c-0.008-9.838-3.847-19.085-10.809-26.036
								C1503.996,1057.048,1494.754,1053.224,1484.928,1053.224z"/>
							<path style="fill:#363E44;" d="M1766.896,1131.071c-22.728,0-41.225-18.479-41.244-41.209
								c-0.018-22.742,18.469-41.258,41.209-41.276c0.012,0,0.024,0,0.036,0c11.004,0,21.351,4.28,29.139,12.056
								c7.795,7.783,12.094,18.137,12.103,29.153c0.018,22.741-18.469,41.258-41.209,41.276
								C1766.917,1131.071,1766.906,1131.071,1766.896,1131.071z M1766.897,1052.995c-0.011,0-0.02,0-0.031,0
								c-20.309,0.016-36.82,16.553-36.804,36.863c0.016,20.298,16.538,36.801,36.834,36.803c0.011,0,0.018,0,0.029,0
								c20.31-0.017,36.82-16.553,36.804-36.863c-0.007-9.839-3.847-19.085-10.809-26.036
								C1785.964,1056.819,1776.723,1052.995,1766.897,1052.995z"/>
							<path style="fill:#363E44;" d="M1523.965,1091.958c-1.216,0-2.204-0.986-2.205-2.203c-0.001-1.218,0.985-2.205,2.203-2.206
								l203.585-0.165c0.001,0,0.001,0,0.002,0c1.217,0,2.204,0.986,2.205,2.203c0.001,1.218-0.985,2.205-2.203,2.206
								l-203.585,0.165C1523.966,1091.958,1523.966,1091.958,1523.965,1091.958z"/>
							<path style="fill:#363E44;" d="M1496.355,1054.928c-0.215,0-0.434-0.032-0.65-0.099c-1.164-0.359-1.816-1.593-1.458-2.756
								l9.325-30.247c0.357-1.164,1.592-1.816,2.756-1.457c1.164,0.359,1.816,1.593,1.458,2.757l-9.325,30.247
								C1498.169,1054.319,1497.297,1054.928,1496.355,1054.928z"/>
						</g>
						<path style="fill:#363E44;" d="M1625.754,1014.579c-1.081,0-2.025-0.797-2.18-1.898l-23.116-164.261
							c-0.17-1.206,0.671-2.321,1.876-2.491c1.192-0.169,2.321,0.67,2.49,1.876l23.116,164.261c0.17,1.206-0.671,2.321-1.876,2.491
							C1625.96,1014.572,1625.856,1014.579,1625.754,1014.579z"/>
						<path style="fill:#363E44;" d="M1562.735,1019.881c-1.044,0-1.972-0.745-2.167-1.809l-31.19-170.489
							c-0.219-1.198,0.575-2.346,1.772-2.565c1.21-0.221,2.347,0.575,2.567,1.772l31.19,170.489
							c0.219,1.198-0.575,2.346-1.772,2.565C1563,1019.869,1562.867,1019.881,1562.735,1019.881z"/>
						<path style="fill:#363E44;" d="M1486.714,941.722c-1.17,0-2.145-0.921-2.2-2.102c-0.057-1.216,0.883-2.249,2.099-2.306
							l260.654-12.212c1.201-0.061,2.249,0.883,2.306,2.099c0.057,1.217-0.883,2.249-2.099,2.306L1486.82,941.72
							C1486.785,941.721,1486.75,941.722,1486.714,941.722z"/>
					</g>
				</g>
			</g>
		</g>
		<g>
			<g>
				<g>
					<polygon style="fill:#EFBC73;" points="1588.627,2137.853 2135.369,2137.853 2050.091,1665.667 1695.009,1665.667 					"/>
				</g>
				<path style="fill:#F7F1EB;" d="M1818.645,2099.467c-0.997,0-1.901-0.681-2.142-1.694
					c-16.41-68.827-98.216-412.479-97.077-418.672c0.22-1.198,1.366-1.991,2.567-1.769c1.127,0.207,1.896,1.237,1.799,2.356
					c0.403,9.783,63.586,276.921,97,417.063c0.283,1.184-0.449,2.374-1.633,2.656
					C1818.987,2099.447,1818.815,2099.467,1818.645,2099.467z"/>
				<path style="fill:#F7F1EB;" d="M1613.482,2120.177c-0.768,0-1.514-0.402-1.92-1.117c-0.601-1.059-0.23-2.405,0.829-3.006
					l90.835-51.555v-373.98c0-1.218,0.987-2.205,2.205-2.205c1.218,0,2.205,0.987,2.205,2.205v375.264
					c0,0.793-0.426,1.526-1.116,1.917l-91.951,52.189C1614.225,2120.085,1613.85,2120.177,1613.482,2120.177z"/>
			</g>
			<path style="fill:#776E42;" d="M1783.715,1695.49c3.432,0,6.213-2.781,6.213-6.213v-89.88c0-21.013,17.094-38.107,38.107-38.107
				h75.383c21.012,0,38.107,17.094,38.107,38.107v89.88c0,3.432,2.781,6.213,6.213,6.213c3.432,0,6.213-2.781,6.213-6.213v-89.88
				c0-27.864-22.669-50.533-50.533-50.533h-75.383c-27.864,0-50.533,22.669-50.533,50.533v89.88
				C1777.502,1692.708,1780.283,1695.49,1783.715,1695.49z"/>
		</g>
		<g>
			<g>
				<path style="fill:#FFFFFF;" d="M1050.869,1999.344c-7.803,14.155-16.604,33.692-22.19,58.036
					c-8.649,37.691-5.666,69.792-2.156,89.675c88.342,0,176.685,0,265.027,0c-1.834-11.825-4.868-22.341-8.535-31.638
					c-35.008-88.763-147.046-115.587-172.476-121.082C1090.649,1996.004,1070.759,1997.674,1050.869,1999.344z"/>
				<path style="fill:#84524D;" d="M1019.134,1909.748l20.172,93.54c4.454,18.86,22.668,31.635,41.768,28.362
					c1.093-0.187,2.205-0.414,3.334-0.685c17.685-4.24,29.583-20.858,28.249-38.995l-8.728-91.528L1019.134,1909.748z"/>
				<path style="fill:#E6D0BE;" d="M521.865,1971.566c0,0-44.194,85.341-36.297,175.489c59.274,0,118.547,0,177.821,0
					c-4.635-19.431-11.714-42.084-22.759-66.346c-18.929-41.579-42.543-72.587-61.697-93.777L521.865,1971.566z"/>
				<path style="fill:#84524D;" d="M513.925,1992.146c-1.262-31.151-1.106-88.623,13.074-134.875l103.383,30.522
					c0,0-33.923,51.579-44.648,109.187c-3.243,17.418-18.721,30.021-36.39,28.709c-2.317-0.172-4.732-0.471-7.238-0.923
					C526.252,2021.907,514.577,2008.244,513.925,1992.146z"/>
				<path style="fill:#8B865C;" d="M693.13,1060.966c0,0-194.238,303.343-196.658,888.447h141.846
					c0,0,170.096-505.603,282.117-631.662l-41.437-282.202L693.13,1060.966z"/>
				<path style="fill:#8B865C;" d="M782.314,1380.728c0,0,179.565,295.946,221.165,568.685h132.339
					c0,0,11.501-659.332-229.86-926.948l-117.483,23.301L782.314,1380.728z"/>
				<path style="fill:#363E44;" d="M841.526,1435.188c-0.309,0-0.622-0.065-0.922-0.203c-1.106-0.509-1.589-1.819-1.08-2.924
					l75.204-163.306c0.508-1.107,1.817-1.591,2.925-1.08c1.106,0.509,1.589,1.819,1.08,2.924l-75.204,163.306
					C843.158,1434.713,842.359,1435.188,841.526,1435.188z"/>
			</g>
			<g>
				<path style="fill:#84524D;" d="M862.789,834.442c0,0,149.993,107.743,275.431-12.594l26.644-54.068
					c0,0,30.76,83.861,9.027,165.592c-21.733,81.731-111.094,98.248-233.662,73.255L862.789,834.442z"/>
				<path style="fill:#EFBC73;" d="M624.95,1159.039c76.736-48.236,237.333-140.345,350.814-144.56
					c0,0,12.976-99.884-99.779-190.052c0,0-130.264-82.976-302.249-8.52c0,0-119.374,199.1-62.208,311.98
					C532.669,1169.63,585.336,1183.94,624.95,1159.039z"/>
				<g>
					<g>
						<path style="fill:#84524D;" d="M577.125,813.994c0,55.872,2.709,103.385,7.428,184.094
							c5.421,92.708,7.899,137.812-26.471,151.536C367.992,1225.529,418.599,897.617,577.125,813.994z"/>
					</g>
					<g>
						<path style="fill:#84524D;" d="M540.229,1006.595c0,0,114.144-46.473,176.387-66.839
							c65.369-21.389,164.995-43.449,167.901-29.472c1.656,7.961-11.31,13.779-46.997,27.025c2.474,1.135,8.991,5.787,9.316,13.422
							c0.481,11.3-8.417,14.833-9.088,15.463c0.87,0.317,10.149,3.989,11.751,11.498c1.805,8.459-1.928,14.967-7.467,18.891
							c2.134,0.853,9.689,4.8,11.017,12.063c1.365,7.471-2.633,16.261-10.2,18.613c-13.882,4.315-55.382,16.351-74.865,24.67
							c-38.339,16.37-166.685,92.777-228.35,101.79C549.941,1100.774,540.229,1006.595,540.229,1006.595z"/>
						<g>
							<path style="fill:#363E44;" d="M825.341,1026.679c-1.05,0-1.98-0.752-2.169-1.822l-2.14-12.1
								c-0.212-1.199,0.588-2.343,1.787-2.555c1.21-0.215,2.344,0.588,2.556,1.787l2.14,12.101c0.212,1.199-0.589,2.343-1.788,2.555
								C825.597,1026.668,825.468,1026.679,825.341,1026.679z"/>
							<path style="fill:#363E44;" d="M819.644,997.59c-1.078,0-2.021-0.792-2.179-1.891l-1.986-13.75
								c-0.174-1.205,0.662-2.323,1.867-2.497c1.195-0.174,2.324,0.662,2.498,1.867l1.986,13.75
								c0.174,1.205-0.662,2.323-1.867,2.497C819.856,997.582,819.749,997.59,819.644,997.59z"/>
							<path style="fill:#363E44;" d="M815.757,966.626c-1.049,0-1.979-0.751-2.168-1.819c-0.406-2.281-0.756-4.341-1.107-6.403
								c-0.342-2.018-0.686-4.038-1.082-6.27c-0.213-1.199,0.586-2.344,1.785-2.557c1.198-0.213,2.344,0.586,2.556,1.785
								c0.399,2.245,0.744,4.275,1.088,6.303c0.349,2.051,0.697,4.1,1.1,6.369c0.213,1.199-0.586,2.344-1.784,2.557
								C816.015,966.615,815.885,966.626,815.757,966.626z"/>
							<path style="fill:#363E44;" d="M810.112,941.489c-0.985,0-1.882-0.664-2.136-1.662l-3.006-11.823
								c-0.3-1.18,0.413-2.38,1.593-2.681c1.182-0.3,2.379,0.413,2.681,1.594l3.006,11.823c0.3,1.181-0.413,2.38-1.593,2.681
								C810.473,941.467,810.291,941.489,810.112,941.489z"/>
						</g>
					</g>
				</g>
				<g>
					<g>
						<polygon style="fill:#D87355;" points="1116.409,909.539 1002.733,909.539 1077.7,734.156 1191.376,734.156 						"/>
						<path style="fill:#EFBC73;" d="M1103.419,755.317c0,4.243-3.44,7.683-7.683,7.683c-4.243,0-7.683-3.44-7.683-7.683
							c0-4.243,3.44-7.683,7.683-7.683C1099.979,747.634,1103.419,751.073,1103.419,755.317z"/>
					</g>
					<g>
						<path style="fill:#84524D;" d="M1188.602,794.098c0,11.51-0.97,20.841-20.906,20.841c-19.936,0-51.287-9.331-51.287-20.841
							c0-11.51,31.352-20.841,51.287-20.841C1187.632,773.257,1188.602,782.588,1188.602,794.098z"/>
						<path style="fill:#84524D;" d="M1105.823,824.725c0-11.51,31.352-20.841,51.287-20.841s20.906,9.331,20.906,20.841H1105.823z"
							/>
						<path style="fill:#84524D;" d="M1178.016,824.725c0,11.51-0.97,20.841-20.906,20.841s-51.287-9.331-51.287-20.841H1178.016z"
							/>
						<path style="fill:#84524D;" d="M1095.236,855.353c0-11.51,31.352-20.841,51.287-20.841c19.936,0,20.906,9.331,20.906,20.841
							H1095.236z"/>
						<path style="fill:#84524D;" d="M1167.429,855.353c0,11.51-0.971,20.841-20.906,20.841c-19.936,0-51.287-9.331-51.287-20.841
							H1167.429z"/>
						<path style="fill:#84524D;" d="M1099.457,881.705c0-9.149,24.921-16.566,40.768-16.566s16.618,7.417,16.618,16.566H1099.457z"
							/>
						<path style="fill:#84524D;" d="M1156.843,881.705c0,9.149-0.771,16.566-16.618,16.566s-40.768-7.417-40.768-16.566H1156.843z"
							/>
					</g>
				</g>
			</g>
			<g>
				
					<ellipse transform="matrix(0.8817 -0.4719 0.4719 0.8817 -231.0782 427.9899)" style="fill:#363E44;" cx="737.83" cy="674.742" rx="73.36" ry="73.36"/>
				<path style="fill:#84524D;" d="M788.501,711.308c-9.283-5.129-25.188-18.827-30.317-9.544l-60.183,96.244
					c-5.129,9.283,25.657,6.052,34.94,11.181c9.283,5.129,20.966,1.761,26.095-7.522l36.986-64.264
					C801.152,728.12,797.784,716.436,788.501,711.308z"/>
				<ellipse style="fill:#84524D;" cx="729.66" cy="805.443" rx="51.896" ry="15.624"/>
				<g>
					<path style="fill:#84524D;" d="M837.078,737.786c-8.327,15.583-57.136,8.883-57.136,8.883l-42.565-33.194
						c-11.091-22.244-2.049-49.267,20.195-60.357c22.244-11.091,49.267-2.048,60.357,20.195
						C817.929,673.314,845.559,721.915,837.078,737.786z"/>
					<path style="fill:#84524D;" d="M818.581,686.212c0,0,17.198,6.203,18.155,9.628c1.142,4.088-10.307,12.637-10.307,12.637
						S818.896,686.091,818.581,686.212z"/>
					<g>
						<path style="fill:#FFFFFF;" d="M781.374,702.611c0,0,4.935-6.989,13.063-11.041c1.729-0.862,5.367,14.603,3.334,14.638
							C788.836,706.362,781.374,702.611,781.374,702.611z"/>
						<g>
							<defs>
								<path id="SVGID_1_" d="M781.374,702.611c0,0,7.258-10.279,18.668-13.133c11.41-2.854,22.653,2.797,22.653,2.797
									s-7.258,10.278-18.669,13.133C792.617,708.262,781.374,702.611,781.374,702.611z"/>
							</defs>
							<clipPath id="SVGID_00000173841320426418166940000009545491686426332860_">
								<use xlink:href="#SVGID_1_"  style="overflow:visible;"/>
							</clipPath>
							
								<ellipse transform="matrix(0.5042 -0.8636 0.8636 0.5042 -199.7967 1043.8363)" style="clip-path:url(#SVGID_00000173841320426418166940000009545491686426332860_);fill:#363E44;" cx="809.191" cy="695.924" rx="15.382" ry="15.382"/>
						</g>
					</g>
					<path style="fill:#363E44;" d="M817.124,723.289c-0.316,0-0.634-0.018-0.953-0.054c-3.195-0.363-5.965-2.563-7.057-5.605
						c-0.411-1.146,0.185-2.408,1.331-2.82c1.143-0.411,2.408,0.184,2.821,1.331c0.529,1.473,1.865,2.538,3.403,2.713
						c1.606,0.181,3.168-0.604,3.998-1.999c0.622-1.046,1.973-1.391,3.023-0.767c1.046,0.623,1.389,1.976,0.767,3.022
						C822.906,721.716,820.099,723.289,817.124,723.289z"/>
				</g>
				<path style="fill:#363E44;" d="M705.304,721.659c0,0,63.243,2.79,103.234-60.452c39.992-63.242-69.753-59.522-115.324-38.131
					C664.025,636.776,705.304,721.659,705.304,721.659z"/>
				<path style="fill:#FFFFFF;" d="M720.991,773.667c-2.066,0-3.419-0.21-3.576-0.236c-1.203-0.196-2.018-1.33-1.82-2.532
					c0.196-1.2,1.323-2.021,2.531-1.82c0.091,0.013,9.75,1.462,17.128-4.475c5.259-4.23,8.21-11.213,8.772-20.755
					c0.833-14.175-9.232-22.076-16.581-27.844c-4.705-3.692-8.103-6.36-7.379-9.898c0.674-3.289,4.635-5.504,14.615-8.175
					c34.114-9.128,54.008-49.374,54.205-49.78c0.531-1.095,1.849-1.552,2.945-1.021c1.095,0.532,1.552,1.85,1.022,2.945
					c-0.839,1.729-20.948,42.46-57.034,52.115c-10.807,2.891-11.401,4.613-11.433,4.8c-0.078,0.946,3.59,3.825,5.781,5.544
					c7.658,6.01,19.23,15.093,18.26,31.573c-0.638,10.862-4.156,18.926-10.452,23.967
					C732.027,772.837,725.1,773.667,720.991,773.667z"/>
				<path style="fill:#363E44;" d="M620.744,463.277c0,0-62.67,138.319,83.294,202.079c0,0-65.195-113.864,44.123-206.846
					L620.744,463.277z"/>
			</g>
		</g>
	</g>
</g>
</svg>
