<svg width="235" height="63" viewBox="0 0 235 63" fill="none" xmlns="http://www.w3.org/2000/svg">
<path d="M24.7976 4.16577H28.8344V21.8343C28.8344 24.9946 28.4019 27.2929 27.8252 29.1603C27.1044 31.0277 25.8068 32.4642 24.0768 33.6134C22.2025 34.7625 19.8958 35.3371 16.8682 35.3371C13.9847 35.3371 11.678 34.7625 9.80376 33.9007C7.92952 32.8951 6.63198 31.4587 5.91112 29.5912C5.19026 27.7238 4.75774 25.1382 4.75774 21.978V4.16577H8.65038V21.8343C8.65038 24.42 8.93873 26.431 9.37124 27.7238C9.94793 29.0167 10.6688 29.8785 11.9663 30.7404C13.1197 31.4587 14.5614 31.746 16.4357 31.746C19.4633 31.746 21.4817 31.0277 22.7792 29.7349C24.0768 28.4421 24.6535 25.7128 24.6535 21.978V4.16577H24.7976Z" fill="#4B4C4C"/>
<path d="M35.178 34.9061V12.6409H38.6381V15.8011C40.224 13.3591 42.675 12.0663 45.7026 12.0663C47.0001 12.0663 48.2976 12.3536 49.451 12.7845C50.6044 13.3591 51.4694 13.9337 51.9019 14.6519C52.4786 15.5138 52.9111 16.3757 53.0553 17.3812C53.1995 18.0995 53.3437 19.2486 53.3437 21.116V34.7625H49.5952V21.2597C49.5952 19.6796 49.451 18.674 49.1627 17.8122C48.8743 17.0939 48.2976 16.3757 47.5768 15.9447C46.8559 15.5138 45.9909 15.2265 44.9817 15.2265C43.3958 15.2265 41.9541 15.8011 40.8007 16.8066C39.6473 17.8122 39.0707 19.8232 39.0707 22.6961V34.7625C38.9265 34.9061 35.178 34.9061 35.178 34.9061Z" fill="#4B4C4C"/>
<path d="M59.1105 8.61873V4.30933H62.8589V8.61873H59.1105ZM59.1105 34.9061V12.6408H62.8589V34.7624H59.1105V34.9061Z" fill="#4B4C4C"/>
<path d="M69.4909 34.9061V15.6575H66.175V12.6409H69.4909V10.3425C69.4909 8.90605 69.6351 7.75688 69.9234 7.03865C70.356 6.03312 70.9326 5.31489 71.7977 4.7403C72.6627 4.16571 73.9602 3.87842 75.6903 3.87842C76.6995 3.87842 77.8529 4.02206 79.2946 4.30936L78.7179 7.61323C77.7087 7.32594 76.9879 7.18229 76.4112 7.18229C75.2578 7.18229 74.5369 7.46959 73.9602 7.90053C73.5277 8.47511 73.2394 9.33699 73.2394 10.6298V12.6409H77.5645V15.6575H73.2394V34.9061H69.4909Z" fill="#4B4C4C"/>
<path d="M80.3036 43.3814L79.8711 39.7902C80.7362 40.0775 81.457 40.2212 82.0337 40.2212C82.8987 40.2212 83.4754 40.0775 84.0521 39.7902C84.6288 39.5029 84.9171 39.072 85.3497 38.6411C85.638 38.2101 85.9263 37.3482 86.503 35.9118C86.6472 35.6245 86.6472 35.3372 86.9355 35.0499L78.4294 12.641H82.4662L87.0797 25.4256C87.6564 27.0057 88.2331 28.7294 88.6656 30.5968C89.0981 28.8731 89.6748 27.1493 90.2515 25.5692L95.0092 12.641H98.7576L90.2515 35.1935C89.3865 37.6355 88.6656 39.3593 88.0889 40.2212C87.3681 41.514 86.6472 42.3759 85.7822 42.9505C84.9171 43.525 83.9079 43.8123 82.6104 43.8123C82.0337 43.8123 81.1687 43.6687 80.3036 43.3814Z" fill="#4B4C4C"/>
<path d="M124.276 24.1327L128.313 25.1382C127.448 28.4421 126.006 31.0277 123.7 32.7515C121.537 34.4753 118.798 35.3372 115.626 35.3372C112.31 35.3372 109.571 34.6189 107.552 33.3261C105.534 32.0333 103.948 30.0222 102.795 27.4366C101.641 24.8509 101.209 22.1216 101.209 19.2487C101.209 16.0885 101.785 13.2155 103.083 10.9172C104.381 8.61885 106.111 6.75145 108.273 5.60227C110.58 4.30945 113.031 3.73486 115.77 3.73486C118.942 3.73486 121.393 4.59674 123.555 6.03321C125.574 7.61333 127.16 9.76803 127.881 12.641L123.988 13.7901C123.267 11.6354 122.258 9.91167 120.816 8.90615C119.519 7.90062 117.788 7.32603 115.77 7.32603C113.463 7.32603 111.445 7.90062 109.859 9.04979C108.273 10.199 107.12 11.6354 106.543 13.6465C105.822 15.5139 105.534 17.525 105.534 19.536C105.534 22.1216 105.966 24.42 106.687 26.4311C107.408 28.2985 108.561 29.8786 110.292 30.7405C111.877 31.746 113.608 32.1769 115.482 32.1769C117.788 32.1769 119.663 31.4587 121.249 30.1659C122.69 28.7294 123.844 26.7183 124.276 24.1327Z" fill="#15A1DC"/>
<path d="M132.926 34.9062V4.16577H136.675V34.7625H132.926V34.9062Z" fill="#15A1DC"/>
<path d="M141.144 23.8455C141.144 19.6797 142.298 16.6631 144.604 14.6521C146.479 13.072 148.785 12.2101 151.669 12.2101C154.696 12.2101 157.147 13.2156 159.166 15.2267C161.04 17.2377 162.049 19.967 162.049 23.4145C162.049 26.2875 161.617 28.4422 160.752 30.1659C159.887 31.746 158.589 33.0389 157.003 34.0444C155.417 34.9063 153.543 35.3372 151.669 35.3372C148.497 35.3372 146.046 34.3317 144.172 32.3206C142.154 30.4532 141.144 27.5803 141.144 23.8455ZM145.037 23.8455C145.037 26.7184 145.614 28.7295 146.911 30.3096C148.209 31.746 149.65 32.4643 151.669 32.4643C153.543 32.4643 155.129 31.746 156.282 30.3096C157.58 28.8731 158.157 26.7184 158.157 23.8455C158.157 21.1162 157.58 19.1051 156.282 17.525C154.985 16.0885 153.543 15.3703 151.669 15.3703C149.795 15.3703 148.209 16.0885 146.911 17.525C145.614 18.8178 145.037 20.9725 145.037 23.8455Z" fill="#15A1DC"/>
<path d="M180.936 34.9062V31.6024C179.206 34.0444 176.899 35.3372 173.871 35.3372C172.574 35.3372 171.42 35.0499 170.123 34.6189C168.969 34.0444 168.104 33.4698 167.672 32.7515C167.095 32.0333 166.663 31.0278 166.518 30.0222C166.374 29.304 166.23 28.1548 166.23 26.4311V12.641H169.979V24.9946C169.979 27.0057 170.123 28.2985 170.267 29.0167C170.555 30.0223 170.988 30.7405 171.709 31.3151C172.429 31.8897 173.439 32.177 174.592 32.177C175.745 32.177 176.755 31.8897 177.764 31.3151C178.773 30.7405 179.494 29.8786 179.782 29.0167C180.215 28.0112 180.359 26.5747 180.359 24.7073V12.641H184.107V34.7626H180.936V34.9062Z" fill="#15A1DC"/>
<path d="M204.724 34.9062V32.1769C203.282 34.3316 201.264 35.4808 198.525 35.4808C196.795 35.4808 195.065 34.9062 193.623 34.0443C192.181 33.0388 191.028 31.746 190.163 30.0222C189.298 28.2984 188.865 26.2874 188.865 23.989C188.865 21.8343 189.298 19.8233 190.019 17.9559C190.739 16.2321 191.893 14.7956 193.334 13.7901C194.776 12.7846 196.506 12.3536 198.236 12.3536C199.534 12.3536 200.687 12.6409 201.841 13.2155C202.85 13.7901 203.715 14.5083 204.436 15.3702V4.16577H208.184V34.7625H204.724V34.9062ZM192.758 23.8454C192.758 26.7183 193.334 28.7294 194.488 30.1658C195.641 31.6023 197.083 32.3205 198.813 32.3205C200.399 32.3205 201.841 31.6023 202.994 30.3095C204.147 29.0167 204.724 26.862 204.724 24.1327C204.724 21.1161 204.147 18.9614 202.994 17.3813C201.841 15.9448 200.399 15.2266 198.669 15.2266C196.939 15.2266 195.497 15.9448 194.488 17.2376C193.334 18.6741 192.758 20.8288 192.758 23.8454Z" fill="#15A1DC"/>
<path d="M215.537 12.4973V4.16578H212.365V3.0166H220.006V4.16578H216.834V12.4973H215.537Z" fill="#15A1DC"/>
<path d="M221.16 12.4973V3.0166H223.034L225.341 9.768C225.629 10.4862 225.773 10.9172 225.773 11.2045C225.917 10.7735 226.061 10.3426 226.35 9.62435L228.656 3.0166H230.387V12.6409H229.089V4.59672L226.35 12.4973H225.196L222.457 4.30942V12.3536L221.16 12.4973Z" fill="#15A1DC"/>
<path d="M170.189 58.3347H168.268V43.8954H170.189V58.3347ZM175.261 49.2141C176.187 48.1701 177.228 47.6481 178.383 47.6481C180.741 47.6481 181.919 48.9318 181.919 51.4992V58.3347H180.058V51.578C180.058 50.7244 179.903 50.1104 179.595 49.7361C179.293 49.3619 178.794 49.1747 178.098 49.1747C177.152 49.1747 176.207 49.7329 175.261 50.8491V58.3347H173.4V47.8845H175.261V49.2141ZM191.247 55.3306V50.3665C190.446 49.5195 189.53 49.0959 188.499 49.0959C187.704 49.0959 187.067 49.4407 186.588 50.1301C186.115 50.813 185.879 51.8341 185.879 53.1933C185.879 54.4803 186.102 55.4587 186.549 56.1284C187.002 56.7916 187.625 57.1232 188.42 57.1232C189.457 57.1232 190.4 56.5257 191.247 55.3306ZM191.247 57.0838C190.419 58.0819 189.425 58.581 188.262 58.581C186.897 58.581 185.839 58.095 185.091 57.1232C184.342 56.1514 183.968 54.8414 183.968 53.1933C183.968 51.4861 184.385 50.1367 185.219 49.1452C186.059 48.1471 187.113 47.6481 188.381 47.6481C189.51 47.6481 190.465 47.9961 191.247 48.6921V43.8954H193.098V58.3347H191.247V57.0838ZM197.718 58.3347H195.856V47.8845H197.718V58.3347ZM197.718 45.9047H195.856V43.8954H197.718V45.9047ZM207.085 55.5867V53.2721H205.814C203.122 53.2721 201.776 54.0042 201.776 55.4685C201.776 56.0004 201.973 56.4108 202.367 56.6997C202.761 56.9821 203.293 57.1232 203.962 57.1232C204.573 57.1232 205.164 56.9853 205.735 56.7096C206.307 56.4338 206.756 56.0595 207.085 55.5867ZM207.085 57.2611C206.139 58.141 204.921 58.581 203.431 58.581C202.393 58.581 201.539 58.3019 200.87 57.7437C200.2 57.179 199.865 56.4535 199.865 55.567C199.865 53.1244 201.97 51.903 206.179 51.903H207.085C207.085 51.1545 207.045 50.6127 206.966 50.2779C206.888 49.9364 206.668 49.6541 206.307 49.4308C205.945 49.2076 205.371 49.0959 204.583 49.0959C202.928 49.0959 202.075 49.6869 202.022 50.8688H200.17C200.308 48.7217 201.812 47.6481 204.681 47.6481C206.021 47.6481 207.065 47.914 207.814 48.4459C208.562 48.9777 208.936 50.0218 208.936 51.578V58.3347H207.085V57.2611Z" fill="#4B4C4C"/>
</svg>
