<svg width="100" height="100" viewBox="0 0 100 100" fill="none" xmlns="http://www.w3.org/2000/svg">
<path d="M91.9346 81.3395H90.1718V27.8039C90.1718 27.0736 89.58 26.4818 88.8497 26.4818H75.717C74.9867 26.4818 74.395 27.0736 74.395 27.8039V81.3395H68.4102V44.2429C68.4102 43.5126 67.8184 42.9208 67.0881 42.9208H53.9383C53.208 42.9208 52.6162 43.5126 52.6162 44.2429V61.2889C52.6162 62.0192 53.208 62.611 53.9383 62.611C54.6686 62.611 55.2604 62.0192 55.2604 61.2889V45.5649H65.7661V81.3399H55.2604V67.5549C55.2604 66.8246 54.6686 66.2329 53.9383 66.2329C53.208 66.2329 52.6162 66.8246 52.6162 67.5549V81.3399H46.6402V36.0198C46.6402 35.2895 46.0484 34.6977 45.3181 34.6977H32.1683C31.438 34.6977 30.8462 35.2895 30.8462 36.0198V81.3399H24.8615V64.1531C24.8615 63.4228 24.2697 62.831 23.5394 62.831C22.8091 62.831 22.2173 63.4228 22.2173 64.1531V81.3399H11.729V53.7804H22.2173V58.5398C22.2173 59.2693 22.8091 59.8619 23.5394 59.8619C24.2697 59.8619 24.8615 59.2693 24.8615 58.5398V52.4582C24.8615 51.7279 24.2697 51.1361 23.5394 51.1361H10.3982C9.66796 51.1361 9.07617 51.7279 9.07617 52.4582V81.3413H7.32207C6.59179 81.3413 6 81.9331 6 82.6634V89.5823C6 90.3126 6.59179 90.9044 7.32207 90.9044H78.3262C79.0565 90.9044 79.6483 90.3126 79.6483 89.5823C79.6483 88.852 79.0565 88.2602 78.3262 88.2602H8.63558V83.9855H90.6051V88.2602H86.524C85.7937 88.2602 85.2019 88.852 85.2019 89.5823C85.2019 90.3126 85.7937 90.9044 86.524 90.9044H91.9358C92.666 90.9044 93.2578 90.3126 93.2578 89.5823V82.6634C93.2578 81.9331 92.666 81.3413 91.9358 81.3413L91.9346 81.3395ZM33.4894 81.3395V37.3409H43.995V81.3395H33.4894ZM77.0387 81.3395V29.1255H87.527V81.3395H77.0387Z" fill="#164FF4"/>
<path d="M16.4178 48.7294C18.0782 48.7389 19.6868 48.1565 20.9568 47.0879C22.227 46.0192 23.0754 44.5334 23.35 42.8957C23.6246 41.2589 23.3075 39.5771 22.4552 38.1528L33.7637 29.6206C35.4887 31.344 37.9865 32.0443 40.356 31.4707C42.7256 30.8962 44.6259 29.1304 45.3713 26.8095L53.5068 31.7185V32.2206C53.5179 34.2628 54.4205 36.1978 55.9771 37.5183C57.5337 38.8396 59.5901 39.4149 61.6061 39.0938C63.6223 38.7719 65.3975 37.5868 66.4671 35.8469C67.5358 34.1077 67.7923 31.9877 67.1683 30.0439L77.5158 22.1995C79.2392 23.8127 81.6568 24.4564 83.9546 23.9134C86.2525 23.3704 88.1254 21.7139 88.9454 19.4995C89.7654 17.2858 89.423 14.8085 88.0325 12.8993C86.6428 10.9909 84.3897 9.90501 82.0312 10.0065C79.672 10.1081 77.5204 11.3829 76.2991 13.4037C75.0779 15.4246 74.9487 17.9225 75.9553 20.0573L65.8634 27.7168C64.3509 25.9194 62.0365 25.0025 59.7032 25.2757C57.3699 25.5488 55.3301 26.9763 54.2733 29.0742L45.6972 23.9007H45.6979C45.4815 21.8713 44.3908 20.0376 42.7107 18.88C41.0306 17.7224 38.9287 17.3549 36.9558 17.8751C34.983 18.3944 33.335 19.7496 32.4436 21.5855C31.5527 23.4207 31.5071 25.5541 32.3185 27.4262L20.711 36.1778C18.9231 34.8069 16.5843 34.3796 14.4273 35.032C12.2703 35.6836 10.5595 37.3339 9.83001 39.4665C9.10129 41.5983 9.44283 43.9514 10.7492 45.7873C12.0555 47.6232 14.1653 48.7179 16.4184 48.729L16.4178 48.7294ZM82.2847 12.769C83.4392 12.769 84.5471 13.2278 85.3632 14.0447C86.18 14.8607 86.6388 15.968 86.6388 17.1232C86.6388 18.2776 86.18 19.3849 85.3632 20.2017C84.5471 21.0185 83.4391 21.4773 82.2847 21.4773C81.1303 21.4773 80.0223 21.0185 79.2062 20.2017C78.3894 19.3848 77.9306 18.2776 77.9306 17.1232C77.9259 15.9648 78.3823 14.8513 79.1991 14.0298C80.016 13.2082 81.1264 12.7447 82.2847 12.7423L82.2847 12.769ZM60.5151 27.8674C61.6695 27.8674 62.7775 28.3262 63.5936 29.1422C64.4104 29.9591 64.8692 31.0663 64.8692 32.2207C64.8692 33.376 64.4104 34.4831 63.5936 35.3C62.7775 36.1161 61.6695 36.5749 60.5151 36.5749C59.3607 36.5749 58.2527 36.1161 57.4366 35.3C56.6197 34.4832 56.1609 33.3759 56.1609 32.2207C56.1633 31.067 56.6229 29.9605 57.439 29.1444C58.255 28.3284 59.3615 27.8696 60.5152 27.8672L60.5151 27.8674ZM38.7454 20.3143V20.3135C39.8999 20.3135 41.0078 20.7723 41.8239 21.5891C42.6408 22.4052 43.0996 23.5132 43.0996 24.6676C43.0996 25.822 42.6408 26.93 41.8239 27.7461C41.0079 28.563 39.8998 29.0217 38.7454 29.0217C37.591 29.0217 36.4831 28.563 35.667 27.7461C34.8501 26.93 34.3913 25.822 34.3913 24.6676C34.3937 23.5139 34.8533 22.4075 35.6693 21.5913C36.4854 20.7752 37.5918 20.3157 38.7456 20.3133L38.7454 20.3143ZM16.4198 37.3422C17.5758 37.3422 18.6838 37.8017 19.5007 38.6194C20.3175 39.437 20.7755 40.5458 20.774 41.7019C20.7724 42.8579 20.3112 43.9651 19.4928 44.7812C18.6736 45.5965 17.564 46.0529 16.4081 46.0498C15.2528 46.0466 14.1457 45.5839 13.3312 44.7639C12.5167 43.9439 12.0618 42.8343 12.0666 41.6784C12.0729 40.5271 12.5348 39.426 13.3501 38.6132C14.1662 37.801 15.2693 37.3445 16.4198 37.3422Z" fill="#164FF4"/>
</svg>
