<svg width="100" height="100" viewBox="0 0 100 100" fill="none" xmlns="http://www.w3.org/2000/svg">
<path d="M17.0835 83.5853H19.8544V86.3562H17.0835V83.5853Z" fill="#164FF4"/>
<path d="M80.8145 83.5853H83.5854V86.3562H80.8145V83.5853Z" fill="#164FF4"/>
<path d="M57.2617 86.3562H60.0326V89.1271H57.2617V86.3562Z" fill="#164FF4"/>
<path d="M90.5124 43.4072V37.8654C90.5124 37.498 90.3664 37.1455 90.1067 36.8857C89.8469 36.6259 89.4943 36.48 89.127 36.48H85.8297L83.4466 31.7001C83.2097 31.23 82.7267 30.9344 82.1997 30.9381H76.6579V7.38545C76.6579 7.01806 76.5119 6.66551 76.2522 6.40574C75.9924 6.14597 75.6399 6 75.2725 6H25.3963C24.6312 6 24.0109 6.62036 24.0109 7.38545V30.9381H18.4691C17.9477 30.9399 17.4708 31.2343 17.2358 31.7001L14.839 36.48H11.5418C10.7767 36.48 10.1563 37.1003 10.1563 37.8654V43.4072H6V46.1781H10.1563V90.5125C10.1563 91.6146 10.5942 92.6723 11.3736 93.4515C12.1529 94.2307 13.2106 94.6687 14.3126 94.6687H86.356C87.4581 94.6687 88.5158 94.2308 89.295 93.4515C90.0742 92.6722 90.5122 91.6145 90.5122 90.5125V46.1781H94.6686V43.4072H90.5124ZM26.7817 8.77098H73.887V30.9382H71.1161V12.9273C71.1161 12.5599 70.9701 12.2074 70.7104 11.9476C70.4506 11.6878 70.0981 11.5419 69.7307 11.5419H30.9381C30.173 11.5419 29.5526 12.1622 29.5526 12.9273V30.9382H26.7817V8.77098ZM68.3452 14.3128V30.9382H32.3235V14.3128H68.3452ZM19.3288 33.7091H81.3415L82.727 36.48H17.9434L19.3288 33.7091ZM87.7415 90.5125C87.7415 90.8799 87.5955 91.2324 87.3358 91.4922C87.076 91.7519 86.7234 91.8979 86.3561 91.8979H51.7198V76.658H57.2616V83.5852H60.0325V75.2725C60.0325 74.9051 59.8866 74.5526 59.6268 74.2928C59.367 74.033 59.0145 73.8871 58.6471 73.8871H51.7198V69.7307H68.3452V75.4668C66.5886 75.9202 65.1655 77.2049 64.5347 78.9051C63.9038 80.6059 64.1456 82.5079 65.1816 83.9972C66.2176 85.4865 67.9166 86.3742 69.7307 86.3742C71.5447 86.3742 73.2438 85.4866 74.2797 83.9972C75.3155 82.5078 75.5575 80.6059 74.9266 78.9051C74.2957 77.2049 72.8725 75.9201 71.1161 75.4668V68.3453C71.1161 67.9779 70.9701 67.6253 70.7103 67.3656C70.4506 67.1058 70.098 66.9598 69.7306 66.9598H60.0325V64.1889H69.7306C70.098 64.1889 70.4506 64.043 70.7103 63.7832C70.9701 63.5234 71.1161 63.1709 71.1161 62.8035V57.2617H68.3452V61.418H58.647C57.882 61.418 57.2616 62.0384 57.2616 62.8035V66.9598H51.7198V61.2238C53.4764 60.7704 54.8995 59.4857 55.5303 57.7855C56.1612 56.0846 55.9194 54.1827 54.8834 52.6934C53.8474 51.204 52.1484 50.3164 50.3344 50.3164C48.5203 50.3164 46.8212 51.204 45.7853 52.6934C44.7495 54.1827 44.5075 56.0846 45.1384 57.7855C45.7693 59.4857 47.1925 60.7704 48.9489 61.2238V64.1889H40.6362V54.4908C40.6381 54.1228 40.494 53.7684 40.2342 53.5074C39.9732 53.2476 39.6188 53.1035 39.2508 53.1053H32.3235V55.8762H37.8653V65.5744C37.8653 65.9418 38.0113 66.2943 38.2711 66.5541C38.5309 66.8139 38.8834 66.9598 39.2508 66.9598H48.9489V78.0434H43.4071V75.2725H40.6362V79.4289C40.6362 79.7963 40.7822 80.1488 41.042 80.4086C41.3017 80.6684 41.6543 80.8143 42.0217 80.8143H48.9489V83.5852H32.3235V77.8491C34.0801 77.3958 35.5033 76.1111 36.1341 74.4109C36.765 72.71 36.5231 70.8081 35.4871 69.3187C34.4512 67.8294 32.7522 66.9418 30.9381 66.9418C29.124 66.9418 27.4249 67.8293 26.3891 69.3187C25.3533 70.8081 25.1113 72.71 25.7421 74.4109C26.373 76.1111 27.7962 77.3958 29.5527 77.8491V84.9707C29.5527 85.3381 29.6986 85.6906 29.9584 85.9504C30.2182 86.2101 30.5707 86.3561 30.9381 86.3561H48.949V91.8979H14.3127C13.5477 91.8979 12.9273 91.2775 12.9273 90.5125V46.1781H17.0836V80.8143H19.8545V46.1781H80.8143V80.8143H83.5852V46.1781H87.7415L87.7415 90.5125ZM50.3344 58.6471C49.5996 58.6471 48.8945 58.3552 48.375 57.8357C47.8554 57.3161 47.5635 56.611 47.5635 55.8762C47.5635 55.1415 47.8554 54.4364 48.375 53.9168C48.8945 53.3973 49.5996 53.1053 50.3344 53.1053C51.0692 53.1053 51.7743 53.3973 52.2938 53.9168C52.8133 54.4364 53.1053 55.1415 53.1053 55.8762C53.1053 56.611 52.8133 57.3161 52.2938 57.8357C51.7743 58.3552 51.0692 58.6471 50.3344 58.6471ZM69.7307 78.0434C70.4654 78.0434 71.1706 78.3354 71.6901 78.8549C72.2096 79.3744 72.5016 80.0795 72.5016 80.8143C72.5016 81.5491 72.2096 82.2542 71.6901 82.7737C71.1706 83.2933 70.4654 83.5852 69.7307 83.5852C68.9959 83.5852 68.2908 83.2933 67.7712 82.7737C67.2517 82.2542 66.9598 81.5491 66.9598 80.8143C66.9598 80.0795 67.2517 79.3744 67.7712 78.8549C68.2908 78.3354 68.9959 78.0434 69.7307 78.0434ZM30.9381 75.2725C30.2033 75.2725 29.4982 74.9806 28.9787 74.461C28.4591 73.9415 28.1672 73.2364 28.1672 72.5016C28.1672 71.7668 28.4591 71.0617 28.9787 70.5422C29.4982 70.0227 30.2033 69.7307 30.9381 69.7307C31.6729 69.7307 32.378 70.0227 32.8975 70.5422C33.4171 71.0617 33.709 71.7668 33.709 72.5016C33.709 73.2364 33.4171 73.9415 32.8975 74.461C32.378 74.9806 31.6729 75.2725 30.9381 75.2725ZM87.7415 43.4072H12.9273V39.2509H87.7415V43.4072Z" fill="#164FF4"/>
<path d="M26.7817 53.1053H29.5526V55.8762H26.7817V53.1053Z" fill="#164FF4"/>
<path d="M68.3452 51.72H71.1161V54.4909H68.3452V51.72Z" fill="#164FF4"/>
<path d="M40.6362 69.7308H43.4071V72.5017H40.6362V69.7308Z" fill="#164FF4"/>
</svg>
