<svg width="100" height="100" viewBox="0 0 100 100" fill="none" xmlns="http://www.w3.org/2000/svg">
<path d="M74.6091 60.8165C73.1872 58.3344 71.3866 55.7024 69.1272 52.8077C70.1856 51.8541 70.8494 50.4768 70.8494 48.9497C70.8494 47.6833 70.3928 46.5211 69.634 45.6174C71.0222 44.5728 71.9201 42.9177 71.9201 41.0584C71.9201 39.9536 71.5889 38.8871 71.0037 37.9815C72.8553 36.9143 74.1098 34.9189 74.1098 32.6622C74.1098 30.2465 72.659 28.0766 70.5161 27.0862C71.2184 26.0984 71.6309 24.8943 71.6309 23.5965C71.6309 20.2562 68.8965 17.5379 65.5363 17.5379H63.1015L64.1337 16.5118C66.3393 14.3193 66.3393 10.7516 64.1337 8.55767C62.2662 6.70262 59.2984 6.38562 57.0743 7.80333C56.8891 7.92175 56.7238 7.93613 56.5221 7.85262C56.3197 7.76911 56.2129 7.64179 56.1654 7.42821C55.6022 4.86258 53.2768 3 50.6375 3C47.9981 3 45.6743 4.86258 45.1096 7.42821C45.0635 7.64179 44.9561 7.76842 44.7537 7.85125C44.5512 7.93476 44.3853 7.9197 44.1993 7.80197C41.976 6.38296 39.0075 6.70127 37.14 8.5563C36.0747 9.61526 35.4874 11.0268 35.4874 12.5326C35.4874 12.8208 35.5087 13.1062 35.5514 13.3848C35.2911 13.7449 35.0425 14.1207 34.8119 14.5143L32.1106 19.1231C31.6913 19.8398 30.9999 20.2341 30.1661 20.2341H24.5252C23.6831 20.2341 23 20.9131 23 21.7503V50.7781C23 51.6153 23.6831 52.2943 24.5252 52.2943H30.1661C30.5765 52.2943 30.9497 52.3874 31.2775 52.5702C31.5274 52.7105 31.7774 52.8392 32.028 52.9597C29.8267 55.7936 28.0618 58.3776 26.6653 60.8152C22.2323 68.5515 22.1406 77.0991 26.4133 84.2652C31.1157 92.153 40.1726 97 50.1437 97C50.3062 97 50.4708 96.9993 50.634 96.9959C50.7972 96.9986 50.9611 97 51.1243 97C61.0943 97 70.1534 92.1516 74.8547 84.2652C79.1335 77.1004 79.042 68.5529 74.6089 60.8152L74.6091 60.8165ZM39.3007 10.7007C40.1615 9.84508 41.5303 9.69928 42.555 10.3543C43.5748 11.0053 44.8025 11.1142 45.9235 10.6528C47.0431 10.1921 47.8343 9.25159 48.0919 8.07349C48.3521 6.88997 49.4236 6.03094 50.6389 6.03024C51.8556 6.03024 52.927 6.88862 53.1866 8.07279C53.4448 9.25017 54.2353 10.1907 55.3564 10.6521C56.4761 11.1128 57.7037 11.0039 58.7242 10.3536C59.7502 9.69925 61.1191 9.84574 61.9785 10.7C62.468 11.1853 62.7366 11.837 62.7366 12.5318C62.7366 13.2265 62.4674 13.8782 61.9778 14.3649L58.7882 17.5356H42.4901L39.3006 14.3649C38.811 13.8782 38.5417 13.2279 38.5417 12.5318C38.5417 11.8356 38.8111 11.1867 39.3007 10.7007ZM34.7507 20.6508L37.1648 16.5313L40.7792 20.1244C41.0649 20.4085 41.4526 20.5679 41.8582 20.5679H65.5393C67.2174 20.5679 68.5829 21.9253 68.5829 23.5936C68.5829 25.2617 67.2174 26.6192 65.5393 26.6192H60.1133C59.2712 26.6192 58.5881 27.2982 58.5881 28.1354C58.5881 28.9725 59.2712 29.6516 60.1133 29.6516H68.7317C70.0909 30.0116 71.0626 31.2533 71.0626 32.6586C71.0626 34.3391 69.6888 35.7321 68.0005 35.767H59.2259C58.3838 35.767 57.7007 36.446 57.7007 37.2832C57.7007 38.1203 58.3838 38.7994 59.2259 38.7994H67.6239C68.3903 39.2922 68.8723 40.1458 68.8723 41.0555C68.8723 42.5348 67.6618 43.7382 66.1751 43.7382L56.6954 43.7403C55.8533 43.7403 55.1702 44.4193 55.1702 45.2565C55.1702 46.0936 55.8533 46.7727 56.6954 46.7727H65.6567C66.8445 46.7959 67.803 47.7625 67.803 48.948C67.803 50.1494 66.8211 51.1255 65.6126 51.1255H37.3871C35.6856 51.1255 34.2643 50.7552 32.7804 49.9262C32.4409 49.7359 32.0774 49.5881 31.7 49.4786L31.6993 23.0547C32.9725 22.6878 34.0459 21.8582 34.7525 20.6514L34.7507 20.6508ZM26.0552 23.2678H28.6456V49.264H26.0552V23.2678ZM72.2364 82.7236C68.0112 89.8117 59.7434 94.1174 50.6653 93.9681H50.6137C41.5299 94.1133 33.2683 89.8117 29.0426 82.7236C25.2906 76.4288 25.3889 69.1826 29.3201 62.3191C30.7834 59.7659 32.6838 57.0251 35.1131 53.9653C35.8423 54.0953 36.5936 54.1604 37.3827 54.1604H65.6082C65.8368 54.1604 66.062 54.1439 66.2817 54.1152C68.6559 57.1154 70.5171 59.8068 71.9569 62.3183C75.8895 69.1806 75.9878 76.4276 72.2358 82.7228L72.2364 82.7236ZM58.659 73.9295C58.8587 75.5669 58.4166 77.0626 57.3796 78.2544C56.2063 79.6029 54.2843 80.5188 52.092 80.8069V82.284C52.092 83.1212 51.4089 83.8002 50.5668 83.8002C49.7246 83.8002 49.0416 83.1212 49.0416 82.284V80.7843C45.7605 80.2743 43.2197 78.1729 42.4731 75.1946C42.2693 74.3821 42.7672 73.5593 43.5838 73.3567C44.4012 73.1555 45.2288 73.649 45.4326 74.4608C46.0585 76.9559 48.5319 77.8506 50.5605 77.8711H50.5963C50.6666 77.8711 50.732 77.8711 50.7988 77.8691C52.5857 77.8273 54.263 77.1996 55.0714 76.27C55.5431 75.7272 55.7262 75.081 55.6298 74.2939C55.4735 73.0139 54.7298 71.4531 50.3374 70.7357C44.5719 69.7952 43.2278 66.8614 43.1155 64.5669C42.9606 61.3886 45.1908 58.7259 48.6654 57.9428C48.7887 57.9154 48.914 57.8894 49.0407 57.8668V56.3438C49.0407 55.5066 49.7238 54.8276 50.5659 54.8276C51.4081 54.8276 52.0911 55.5066 52.0911 56.3438V57.8538C54.5005 58.2584 56.852 59.6835 58.0419 62.5011C58.3676 63.2725 58.0027 64.1624 57.2266 64.4861C56.4513 64.8099 55.5554 64.4471 55.2298 63.6757C54.3546 61.603 52.4782 60.7603 50.6651 60.7556C50.6113 60.7583 50.5563 60.7597 50.5025 60.7576C50.108 60.7679 49.7162 60.8172 49.3416 60.902C47.7393 61.2628 46.0646 62.3772 46.1645 64.4218C46.1983 65.1282 46.2913 67.0052 50.8331 67.7459C52.6165 68.0354 58.0474 68.9233 58.6589 73.9298L58.659 73.9295Z" fill="#164FF4"/>
</svg>
