<svg width="100" height="100" viewBox="0 0 100 100" fill="none" xmlns="http://www.w3.org/2000/svg">
<path d="M76.4308 64.3412C70.0005 64.3412 64.7686 69.573 64.7686 76.0035C64.7686 82.4339 70.0004 87.6658 76.4308 87.6658C82.8613 87.6658 88.0931 82.4339 88.0931 76.0035C88.0931 69.573 82.8613 64.3412 76.4308 64.3412ZM76.4308 84.7496C71.6069 84.7496 67.6845 80.8266 67.6845 76.0033C67.6845 71.1793 71.6075 67.257 76.4308 67.257C81.2548 67.257 85.1771 71.18 85.1771 76.0033C85.1778 80.8273 81.2548 84.7496 76.4308 84.7496Z" fill="#164FF4"/>
<path d="M76.4312 70.1722C73.2154 70.1722 70.6001 72.7875 70.6001 76.0034C70.6001 79.2193 73.2154 81.8345 76.4312 81.8345C79.6471 81.8345 82.2624 79.2193 82.2624 76.0034C82.2624 72.7875 79.6471 70.1722 76.4312 70.1722ZM76.4312 78.9186C74.823 78.9186 73.5161 77.6109 73.5161 76.0034C73.5161 74.3951 74.8237 73.0882 76.4312 73.0882C78.0395 73.0882 79.3464 74.3959 79.3464 76.0034C79.347 77.611 78.0394 78.9186 76.4312 78.9186Z" fill="#164FF4"/>
<path d="M92.4347 68.9738L93.6533 66.4244L86.012 58.7831L83.4625 60.0017C83.2354 59.9013 83.0064 59.8046 82.7761 59.7162L81.8374 57.0545H77.76C74.442 53.3517 69.7597 51.2233 64.7701 51.2233C60.9451 51.2233 57.2668 52.4714 54.2348 54.7698C50.4932 48.9431 44.0685 45.3903 37.0712 45.3903C27.9559 45.3903 20.0794 51.3324 17.5238 59.9809C10.5645 60.2946 5 66.0543 5 73.0876C5 80.3223 10.8851 86.2074 18.1199 86.2074H59.8331L66.8495 93.2239L69.3989 92.0054C69.6261 92.1057 69.8551 92.2024 70.0854 92.2908L71.0241 94.9525H81.8348L82.7736 92.2908C83.0026 92.2005 83.231 92.1057 83.46 92.0054L86.0094 93.2239L93.6507 85.5826L92.4322 83.0332C92.5326 82.806 92.6292 82.577 92.7177 82.3467L95.3807 81.4087V70.5979L92.719 69.6592C92.6286 69.4302 92.5339 69.2017 92.4335 68.974L92.4347 68.9738ZM7.91602 73.0875C7.91602 67.4621 12.4947 62.8829 18.1206 62.8829C18.1977 62.8829 18.2724 62.8886 18.3477 62.8949L19.7834 62.9576L20.0588 61.7842C21.9249 53.8498 28.9193 48.3055 37.0699 48.3055C43.5818 48.3055 49.5146 51.896 52.5559 57.6762L53.4437 59.3641L54.8386 58.0621C57.5543 55.5302 61.0795 54.1366 64.7677 54.1366C67.9527 54.1366 70.9922 55.1788 73.4863 57.0517H71.0241L70.0854 59.7134C69.8564 59.8038 69.628 59.8985 69.399 59.9989L66.8496 58.7804L59.2083 66.4217L60.4268 68.9711C60.3264 69.1983 60.2298 69.4273 60.1413 69.6576L57.4803 70.5975V81.4083L60.142 82.347C60.2323 82.576 60.3271 82.8044 60.4274 83.0334L60.3038 83.2932H18.12C12.4941 83.292 7.91545 78.7132 7.91545 73.0874L7.91602 73.0875ZM92.4668 79.3446L90.4363 80.0606L90.2091 80.7295C90.0196 81.286 89.785 81.8476 89.5139 82.3986L89.202 83.0342L90.1338 84.9806L85.4077 89.7068L83.4613 88.775L82.8257 89.0868C82.2748 89.3579 81.7132 89.5925 81.1565 89.782L80.4877 90.0092L79.7717 92.0398H73.089L72.3731 90.0092L71.7042 89.782C71.1477 89.5925 70.5861 89.3579 70.0351 89.0868L69.3994 88.775L67.4531 89.7068L62.7269 84.9806L63.6587 83.0342L63.3469 82.3986C63.0758 81.8477 62.8411 81.2861 62.6516 80.7295L62.4245 80.0606L60.3958 79.3446V72.662L62.4264 71.946L62.6536 71.2771C62.8431 70.7206 63.0777 70.159 63.3488 69.608L63.6606 68.9724L62.7288 67.026L67.455 62.2998L69.4014 63.2316L70.037 62.9198C70.5879 62.6487 71.1495 62.414 71.7061 62.2245L72.375 61.9974L73.091 59.9668H79.7736L80.4896 61.9974L81.1585 62.2245C81.715 62.414 82.2766 62.6487 82.8276 62.9198L83.4632 63.2316L85.4096 62.2998L90.1358 67.026L89.204 68.9724L89.5158 69.608C89.7869 70.1589 90.0216 70.7205 90.2111 71.2771L90.4382 71.946L92.4668 72.662V79.3446Z" fill="#164FF4"/>
<path d="M26.8674 71.8989V58.5105H23.9523V71.8989C22.26 72.5026 21.0371 74.1057 21.0371 76.0039C21.0371 78.4153 22.9992 80.3775 25.4107 80.3775C27.8221 80.3775 29.7842 78.4153 29.7842 76.0039C29.7836 74.1059 28.5606 72.5026 26.8678 71.8989H26.8674ZM25.4098 77.4615C24.6054 77.4615 23.9522 76.8083 23.9522 76.0039C23.9522 75.1995 24.6054 74.5463 25.4098 74.5463C26.2142 74.5463 26.8674 75.1995 26.8674 76.0039C26.8674 76.8083 26.2142 77.4615 25.4098 77.4615Z" fill="#164FF4"/>
<path d="M35.614 61.694V58.5103H32.6989V61.694C31.0066 62.2976 29.7837 63.9008 29.7837 65.799C29.7837 67.6972 31.0066 69.3003 32.6989 69.904V80.3764H35.614V69.904C37.3063 69.3003 38.5292 67.6972 38.5292 65.799C38.5292 63.9008 37.3062 62.2977 35.614 61.694ZM34.1558 67.2566C33.3514 67.2566 32.6982 66.6034 32.6982 65.799C32.6982 64.9945 33.3514 64.3413 34.1558 64.3413C34.9602 64.3413 35.6134 64.9945 35.6134 65.799C35.614 66.604 34.9608 67.2566 34.1558 67.2566Z" fill="#164FF4"/>
<path d="M47.2761 64.6095V58.5104H44.361V64.6095C42.6687 65.2131 41.4458 66.8162 41.4458 68.7144C41.4458 70.6125 42.6687 72.2158 44.361 72.8194V80.3767H47.2761V72.8194C48.9684 72.2158 50.1913 70.6126 50.1913 68.7144C50.1913 66.817 48.9684 65.2131 47.2761 64.6095ZM45.8179 70.1727C45.0135 70.1727 44.3603 69.5195 44.3603 68.715C44.3603 67.9106 45.0135 67.2574 45.8179 67.2574C46.6223 67.2574 47.2755 67.9106 47.2755 68.715C47.2761 69.5195 46.6229 70.1727 45.8179 70.1727Z" fill="#164FF4"/>
<path d="M19.151 16.6624L15.8084 13.3198H58.9384C59.7428 13.3198 60.396 13.973 60.396 14.7774V45.3909H63.3112V14.7774C63.3112 12.366 61.349 10.4039 58.9376 10.4039H15.8076L19.1502 7.06124L17.089 5L10.2275 11.8614L17.089 18.7229L19.151 16.6624Z" fill="#164FF4"/>
<path d="M80.3778 39.1315L87.2392 32.27L80.3778 25.408L78.3165 27.4692L81.6591 30.8118L76.4317 30.8124C74.0202 30.8124 72.0581 32.7746 72.0581 35.186V48.3059H74.9733V35.186C74.9733 34.3816 75.6265 33.7284 76.4309 33.7284H81.6584L78.3164 37.0704L80.3778 39.1315Z" fill="#164FF4"/>
<path d="M57.4811 48.3051V30.8122C57.4811 28.4008 55.519 26.4386 53.1076 26.4386L24.5566 26.4393L27.8992 23.0966L25.838 21.0354L18.9766 27.8968L25.838 34.7583L27.8992 32.6977L24.5566 29.3551L53.1092 29.3544C53.9136 29.3544 54.5668 30.0076 54.5668 30.8121V48.305L57.4811 48.3051Z" fill="#164FF4"/>
<path d="M69.1425 19.1509C69.1425 18.3465 69.7957 17.6933 70.6001 17.6933H90.4062L87.0636 21.0359L89.1248 23.0972L95.9863 16.2357L89.1248 9.37366L87.0636 11.4349L90.4062 14.7775H70.6001C68.1887 14.7775 66.2266 16.7396 66.2266 19.1511V45.3905H69.1417L69.1425 19.1509Z" fill="#164FF4"/>
</svg>
