<svg width="100" height="100" viewBox="0 0 100 100" fill="none" xmlns="http://www.w3.org/2000/svg">
<path d="M79.2487 38.9195C78.8283 38.3255 78.9699 37.503 79.564 37.0826L81.7158 35.561C82.3099 35.1406 83.1325 35.2822 83.553 35.8755C83.9734 36.4696 83.8325 37.2921 83.2384 37.7124L81.0858 39.2341C80.8544 39.3975 80.5887 39.4764 80.326 39.4764C79.9129 39.4764 79.5056 39.2822 79.2487 38.9195ZM64.5025 47.7348L62.3507 49.2564C61.7566 49.6768 61.6157 50.4993 62.0354 51.0933C62.2923 51.456 62.6989 51.6502 63.1127 51.6502C63.3755 51.6502 63.6419 51.5714 63.8726 51.4079L66.0244 49.8863C66.6185 49.4659 66.7594 48.6434 66.3397 48.0494C65.9193 47.4553 65.0974 47.3145 64.5025 47.7348ZM73.1089 41.6483L70.957 43.17C70.3629 43.5903 70.222 44.4128 70.6417 45.0068C70.8987 45.3696 71.3052 45.5637 71.7191 45.5637C71.9818 45.5637 72.2482 45.4849 72.4789 45.3214L74.6307 43.7998C75.2248 43.3794 75.3657 42.5569 74.946 41.9629C74.5256 41.3688 73.703 41.228 73.1089 41.6483ZM84.7435 28.5171C84.7435 25.1389 87.4923 22.3897 90.8718 22.3897C94.2504 22.3897 97 25.1381 97 28.5171C97 31.8953 94.2512 34.6445 90.8718 34.6445C87.4931 34.6445 84.7435 31.8953 84.7435 28.5171ZM87.3791 28.5171C87.3791 30.4424 88.9454 32.0091 90.8716 32.0091C92.7977 32.0091 94.3641 30.4422 94.3641 28.5171C94.3641 26.5919 92.7977 25.0251 90.8716 25.0251C88.9454 25.0251 87.3791 26.5913 87.3791 28.5171ZM69.1191 18.6838C69.5228 22.0153 69.0622 25.6534 67.7126 29.8038C65.3039 37.2106 60.5808 44.618 56.413 51.1527C55.9941 51.8095 55.5809 52.4575 55.1773 53.0953C57.8093 53.396 60.1953 53.9492 62.0434 54.7001C65.598 56.1437 66.3441 57.9412 66.3441 59.195C66.3441 63.371 58.3736 65.5552 50.5009 65.5552C42.6274 65.5552 34.6578 63.3702 34.6578 59.195C34.6578 55.7817 40.0248 53.7507 45.931 53.0852C45.3705 52.1853 44.7939 51.2694 44.2048 50.3352C35.7628 36.9391 25.256 20.269 36.8839 8.64268C44.4085 1.11911 56.653 1.11911 64.1776 8.64268C66.9907 11.4554 68.6533 14.8336 69.119 18.6832L69.1191 18.6838ZM53.6168 55.5898C52.9015 56.7553 52.2468 57.8617 51.687 58.8849C51.4556 59.3075 51.0126 59.5702 50.5308 59.5702C50.0491 59.5702 49.6061 59.3075 49.3747 58.8849C48.7951 57.8252 48.1514 56.7218 47.4652 55.5833C40.6925 56.0956 37.2927 58.1391 37.2927 59.1936C37.2927 60.4576 41.9545 62.9191 50.5003 62.9191C59.046 62.9191 63.7079 60.4582 63.7079 59.1936C63.7079 58.147 60.335 56.1131 53.617 55.5898H53.6168ZM62.3136 10.5063C59.0655 7.25869 54.797 5.63422 50.5307 5.63422C46.263 5.63422 41.9967 7.25802 38.7474 10.5063C34.2832 14.9698 33.2628 20.8052 35.6286 28.3462C37.7752 35.1895 42.3749 42.4889 46.434 48.929C47.8989 51.2541 49.3031 53.4822 50.536 55.5913C51.6162 53.7719 52.8774 51.795 54.1906 49.7354C58.2738 43.3328 62.9012 36.0766 65.2062 28.9881C67.7805 21.0713 66.8346 15.0249 62.3137 10.5052L62.3136 10.5063ZM58.0458 21.203C58.0458 25.3629 54.6613 28.7477 50.5001 28.7477C46.3396 28.7477 42.9544 25.3636 42.9544 21.203C42.9544 17.0431 46.3389 13.6583 50.5001 13.6583C54.6613 13.6583 58.0458 17.0431 58.0458 21.203ZM55.4102 21.203C55.4102 18.4962 53.2082 16.2937 50.5003 16.2937C47.7931 16.2937 45.5911 18.4962 45.5911 21.203C45.5911 23.9098 47.7931 26.1123 50.501 26.1123C53.2082 26.1123 55.4102 23.9098 55.4102 21.203ZM21.4365 37.0826L19.2846 35.561C18.6905 35.1406 17.8679 35.2815 17.4475 35.8755C17.0271 36.4696 17.1687 37.2921 17.7621 37.7124L19.9139 39.2341C20.1453 39.3975 20.411 39.4764 20.6737 39.4764C21.0868 39.4764 21.4941 39.2822 21.751 38.9195C22.1715 38.3255 22.0299 37.503 21.4365 37.0826ZM34.9753 49.8861L37.1271 51.4078C37.3585 51.5712 37.6242 51.6501 37.887 51.6501C38.3001 51.6501 38.7074 51.4559 38.9643 51.0932C39.3847 50.4992 39.2431 49.6767 38.649 49.2563L36.4972 47.7347C35.9038 47.3151 35.0812 47.4552 34.66 48.0493C34.2396 48.6433 34.3805 49.4658 34.9753 49.8861ZM30.0428 43.1699L27.891 41.6482C27.2968 41.2286 26.475 41.3695 26.0538 41.9635C25.6334 42.5576 25.775 43.38 26.3691 43.8004L28.5209 45.322C28.7523 45.4855 29.018 45.5643 29.2808 45.5643C29.6939 45.5643 30.1012 45.3702 30.3581 45.0075C30.7785 44.4134 30.6376 43.591 30.0428 43.1706V43.1699ZM16.2565 28.5169C16.2565 31.8952 13.5069 34.6443 10.1282 34.6443C6.74955 34.6443 4 31.8959 4 28.5169C4 25.138 6.74881 22.3895 10.1282 22.3895C13.5069 22.3895 16.2565 25.138 16.2565 28.5169ZM13.6209 28.5169C13.6209 26.5917 12.0546 25.0249 10.1284 25.0249C8.2029 25.0249 6.63595 26.5911 6.63595 28.5169C6.63595 30.4428 8.20231 32.0089 10.1284 32.0089C12.0546 32.0089 13.6209 30.4421 13.6209 28.5169ZM37.1271 66.9811L34.9753 68.5027C34.3812 68.9231 34.2403 69.7456 34.66 70.3396C34.9169 70.7023 35.3235 70.8965 35.7373 70.8965C36.0001 70.8965 36.2665 70.8176 36.4972 70.6542L38.649 69.1325C39.2431 68.7122 39.384 67.8897 38.9643 67.2957C38.5439 66.7016 37.722 66.5607 37.1271 66.9811ZM28.5208 73.0683L26.369 74.59C25.7749 75.0103 25.634 75.8328 26.0537 76.4269C26.3106 76.7903 26.7172 76.9837 27.131 76.9837C27.3938 76.9837 27.6602 76.9049 27.8909 76.7414L30.0427 75.2198C30.6368 74.7994 30.7777 73.9769 30.358 73.3829C29.9376 72.7888 29.1157 72.648 28.5208 73.0683ZM19.914 79.1556L17.7622 80.6772C17.168 81.0976 17.0272 81.92 17.4476 82.5141C17.7045 82.8775 18.1111 83.0709 18.5249 83.0709C18.7877 83.0709 19.0541 82.9921 19.2847 82.8286L21.4365 81.307C22.0307 80.8867 22.1715 80.0642 21.7511 79.4701C21.3307 78.8761 20.5081 78.7352 19.914 79.1556ZM16.2565 89.8726C16.2565 93.2508 13.5069 96 10.1282 96C6.74955 96 4 93.2516 4 89.8726C4 86.4944 6.74881 83.7452 10.1282 83.7452C13.5069 83.7452 16.2565 86.4936 16.2565 89.8726ZM13.6209 89.8726C13.6209 87.9473 12.0546 86.3806 10.1284 86.3806C8.2029 86.3806 6.63595 87.9467 6.63595 89.8726C6.63595 91.7985 8.20231 93.3646 10.1284 93.3646C12.0546 93.3646 13.6209 91.7977 13.6209 89.8726ZM74.6306 74.5899L72.4788 73.0682C71.8846 72.6486 71.0628 72.7895 70.6416 73.3835C70.2212 73.9776 70.3621 74.8001 70.957 75.2204L73.1088 76.742C73.3401 76.9055 73.6058 76.9843 73.8686 76.9843C74.2817 76.9843 74.689 76.7902 74.9459 76.4275C75.3663 75.8334 75.2255 75.011 74.6313 74.5906L74.6306 74.5899ZM83.2375 80.6771L81.0856 79.1555C80.4908 78.7351 79.6689 78.876 79.2485 79.47C78.8281 80.0641 78.9697 80.8866 79.5631 81.3069L81.7149 82.8285C81.9463 82.992 82.212 83.0708 82.4747 83.0708C82.8878 83.0708 83.2951 82.8767 83.5521 82.514C83.9725 81.9199 83.8309 81.0975 83.2375 80.6771ZM66.0243 68.5026L63.8725 66.981C63.2783 66.5614 62.4565 66.7022 62.0353 67.2956C61.6149 67.8896 61.7565 68.7121 62.3506 69.1325L64.5025 70.6541C64.7338 70.8176 64.9995 70.8964 65.2623 70.8964C65.6754 70.8964 66.0827 70.7022 66.3396 70.3395C66.76 69.7455 66.6192 68.923 66.0243 68.5026ZM96.9991 89.872C96.9991 93.2503 94.2495 95.9994 90.8708 95.9994C87.4921 95.9994 84.7426 93.251 84.7426 89.872C84.7426 86.4938 87.4914 83.7446 90.8708 83.7446C94.2495 83.7446 96.9991 86.4931 96.9991 89.872ZM94.3635 89.872C94.3635 87.9468 92.7971 86.38 90.871 86.38C88.9449 86.38 87.3785 87.9462 87.3785 89.872C87.3785 91.7979 88.9449 93.364 90.871 93.364C92.7971 93.364 94.3635 91.7972 94.3635 89.872Z" fill="#164FF4" stroke="#164FF4"/>
</svg>
