<svg width="100" height="100" viewBox="0 0 100 100" fill="none" xmlns="http://www.w3.org/2000/svg">
<path d="M61.1754 58.489C70.4513 51.9199 75.9808 41.1777 75.9808 29.8144V14.0122C75.9808 13.3019 75.3562 12.6808 74.6432 12.6808C70.8973 12.5923 67.1516 12.0591 63.4947 11.0832C59.2132 9.92827 55.0214 8.33065 51.0976 6.19971C50.6515 5.93343 50.2054 5.93343 49.76 6.19971C45.8356 8.33049 41.7334 9.92831 37.3629 10.9933C33.706 11.8813 29.9603 12.4139 26.2144 12.591C25.5008 12.591 24.8768 13.2127 24.8768 13.9223V29.7245C24.8768 41.0878 30.4063 51.8297 39.6822 58.3992C42.8041 60.6186 46.2822 62.3939 50.0281 63.4597C50.1171 63.4597 50.2957 63.5483 50.3846 63.5483C50.5632 63.5483 50.6521 63.5483 50.7411 63.4597C54.5759 62.4838 58.0541 60.7084 61.1754 58.489ZM41.3757 56.2696C32.8133 50.1439 27.7299 40.2899 27.7299 29.8144V15.3437C31.2082 15.166 34.7754 14.6334 38.1649 13.7461C42.4464 12.5918 46.5487 10.9942 50.473 8.95183C54.3974 10.9935 58.4996 12.5918 62.7811 13.657C66.1704 14.545 69.6488 15.0775 73.2161 15.2546V29.7253C73.2161 40.2005 68.1321 50.055 59.5703 56.1806C56.8057 58.1336 53.6838 59.7313 50.473 60.708C47.1732 59.8212 44.1403 58.2227 41.3757 56.2696ZM50.473 52.3633C40.662 52.3633 32.6354 44.3738 32.6354 34.6081C32.6354 24.8424 40.662 16.8529 50.473 16.8529C53.3273 16.8529 56.181 17.5632 58.7672 18.8946C59.4808 19.2494 59.6593 20.0489 59.3022 20.7592C58.9457 21.4695 58.1426 21.6472 57.4289 21.2918C55.2883 20.1375 52.8805 19.6049 50.4723 19.6049C42.1781 19.6049 35.3993 26.3517 35.3993 34.6082C35.4 42.8647 42.1786 49.7006 50.4729 49.7006C58.7672 49.7006 65.5458 42.9533 65.5458 34.6082C65.5458 33.3653 65.3673 32.034 65.0998 30.7911C64.9212 30.0808 65.3673 29.282 66.0809 29.1042C66.7945 28.9264 67.597 29.3705 67.7756 30.0808C68.1321 31.5014 68.3106 33.0104 68.3106 34.5196C68.3106 44.4624 60.284 52.3636 50.473 52.3636L50.473 52.3633ZM45.389 28.6601C43.9618 27.2396 41.5542 27.2396 40.0374 28.6601C39.3238 29.3704 38.9673 30.347 38.9673 31.3236C38.9673 32.3001 39.3238 33.2766 40.0374 33.987L46.905 40.8229C47.6186 41.5332 48.5997 41.888 49.5808 41.888C50.5619 41.888 51.5429 41.5332 52.2566 40.8229L67.9535 25.1985C69.3807 23.7779 69.3807 21.3814 67.9535 19.8716C67.24 19.1613 66.2588 18.8065 65.2777 18.8065C64.2966 18.8065 63.3156 19.1613 62.6019 19.8716L49.5808 32.8326L45.389 28.6601ZM64.5644 21.8248C64.9209 21.47 65.6345 21.47 65.9916 21.8248C66.348 22.1797 66.348 22.89 65.9916 23.2454L50.2941 38.7806C49.9377 39.1354 49.2241 39.1354 48.867 38.7806L41.9993 31.9447C41.8208 31.7669 41.7318 31.5007 41.7318 31.2344C41.7318 30.9681 41.8208 30.7018 41.9993 30.5241C42.1779 30.3464 42.4454 30.2578 42.7129 30.2578C42.9804 30.2578 43.248 30.3464 43.4265 30.5241L48.5994 35.6731C48.8669 35.9394 49.224 36.1171 49.5805 36.1171C49.937 36.1171 50.2941 35.9394 50.5616 35.6731L64.5644 21.8248ZM91.5884 33.6316C90.5183 33.2767 89.3587 33.3653 88.2886 33.8093C87.2185 34.2533 86.4153 35.0521 85.9698 36.0287L76.0693 56.7135C75.8018 56.5358 75.6233 56.3587 75.3558 56.181C75.2668 56.181 75.2668 56.0924 75.1772 56.0924C74.9097 55.9147 74.6422 55.8261 74.3747 55.7376C72.6799 55.205 70.8075 55.649 69.4692 56.8919L60.9068 64.8814C60.1042 65.5917 59.5692 66.4791 59.2121 67.5448L55.5552 79.707C54.7526 79.5293 54.0391 79.6185 53.3255 79.9733C52.6119 80.3281 52.0769 81.0384 51.8094 81.8379L51.0068 84.4121C50.7393 85.2109 50.8283 86.099 51.2743 86.8092C51.6308 87.5195 52.3444 88.052 53.1476 88.3183L71.4311 93.8223C71.6987 93.9108 72.0558 94 72.3233 94C73.6609 94 74.9094 93.112 75.3555 91.7806L76.1581 89.2064C76.4256 88.4076 76.3366 87.5195 75.8905 86.8093C75.5341 86.1876 75.088 85.7442 74.4634 85.4779L75.088 83.4362C75.5341 82.1048 76.2477 80.7728 77.3177 79.7962L83.8283 73.4044C85.7016 71.5398 87.0391 69.2319 87.7527 66.6575L94.8879 39.4033C95.423 36.9169 93.9964 34.4313 91.5881 33.6319L91.5884 33.6316ZM73.4832 88.4064L72.6807 90.9806C72.5917 91.1583 72.4131 91.3354 72.1456 91.2469L53.8621 85.7429C53.6835 85.6544 53.5056 85.4767 53.5946 85.2104L54.3971 82.6362C54.3971 82.4585 54.5757 82.4585 54.5757 82.3699C54.6646 82.3699 54.7542 82.2814 54.9321 82.3699L73.2157 87.8739C73.3942 87.9624 73.4832 88.2287 73.4832 88.4064ZM92.1235 38.603L84.9883 65.8573C84.4533 67.899 83.2936 69.8521 81.7775 71.3613L75.267 77.7531C73.9294 79.0845 72.9482 80.7714 72.4126 82.5467L71.7886 84.677L58.1429 80.593L61.7997 68.4309C61.9783 67.8983 62.2458 67.3657 62.6919 67.0103L62.7808 66.9217L71.2535 59.0207C71.8782 58.4881 72.6807 58.3104 73.4832 58.4881C73.8397 58.5767 74.1968 58.8429 74.4643 59.1098C74.7319 59.3761 74.8208 59.6424 74.9994 59.9979C75.2669 60.7967 74.9994 61.6848 74.3748 62.3059L67.5966 68.6093C67.0616 69.1419 66.972 70.0299 67.5077 70.5624C67.7752 70.8287 68.1323 71.0064 68.4888 71.0064C68.8452 71.0064 69.2023 70.9178 69.4699 70.6515L76.248 64.3481C77.4966 63.1938 78.0316 61.4185 77.7641 59.7316L88.5562 37.4488C88.7347 37.0048 89.0912 36.7385 89.5373 36.4722C89.9833 36.2945 90.4294 36.2945 90.8748 36.3837C91.8559 36.5602 92.391 37.6259 92.1234 38.6025L92.1235 38.603ZM49.2241 81.9258C48.778 80.3281 47.0834 79.3516 45.4782 79.795L41.8213 67.6328C41.5538 66.6563 40.9291 65.6797 40.1266 64.9694L31.5642 56.9799C30.2266 55.737 28.3534 55.3822 26.6587 55.8256C26.3912 55.9141 26.1236 56.0033 25.8561 56.1804C25.7672 56.1804 25.7672 56.269 25.6776 56.269C25.4101 56.4467 25.1425 56.5352 24.964 56.8015L14.9757 36.1167C14.5297 35.1401 13.6382 34.3413 12.657 33.8087C11.5869 33.3647 10.4273 33.2761 9.3572 33.6309C6.94896 34.3412 5.52243 36.8269 6.14643 39.3126L13.2816 66.5669C13.9952 69.1411 15.3328 71.4497 17.2061 73.3137L23.7166 79.7056C24.6977 80.6821 25.5002 81.925 25.9463 83.3456L26.571 85.3872C25.1438 86.009 24.4303 87.6066 24.8762 89.1158L25.6788 91.69C26.1248 93.0214 27.3735 93.9094 28.711 93.9094C28.9785 93.9094 29.3356 93.9094 29.6031 93.7317L47.8867 88.2277C48.6892 87.9615 49.4028 87.4289 49.76 86.7186C50.1164 86.0083 50.206 85.121 50.0275 84.3215L49.2241 81.9258ZM25.6784 77.8424L19.1678 71.4505C17.6517 69.9414 16.492 67.9882 15.9571 65.9466L8.82186 38.6923C8.55434 37.6272 9.08938 36.5615 10.1594 36.2952C10.6055 36.1175 11.0516 36.2066 11.497 36.3837C11.9431 36.5615 12.2995 36.9163 12.4781 37.3603L23.2702 59.6431C22.9137 61.33 23.4487 63.0168 24.7863 64.1705L31.5644 70.4739C31.8319 70.7402 32.189 70.8288 32.5455 70.8288C32.902 70.8288 33.2591 70.651 33.5266 70.3848C34.0617 69.8522 34.0617 68.9642 33.4377 68.4317L26.6595 62.0398C26.0349 61.4181 25.7674 60.5307 26.0349 59.7318C26.1239 59.4655 26.3024 59.1101 26.5699 58.933C26.8375 58.6667 27.1946 58.4004 27.551 58.3112C28.3536 58.0449 29.1561 58.3112 29.7807 58.8438L38.2534 66.7449L38.3424 66.8334C38.7885 67.1882 39.056 67.7214 39.2345 68.254L42.8914 80.4161L40.0371 81.3041L29.3347 84.5001L28.71 82.4584C27.9971 80.7728 27.016 79.1745 25.6785 77.8431L25.6784 77.8424ZM47.0835 85.8319L28.8 91.3359C28.6214 91.4244 28.3539 91.2473 28.265 91.0696L27.4624 88.4954C27.3734 88.3177 27.5514 88.0514 27.7299 87.9628L46.0135 82.4589H46.1024C46.1914 82.4589 46.281 82.4589 46.281 82.5474C46.37 82.5474 46.4595 82.636 46.4595 82.8137L47.2621 85.3879C47.4406 85.4771 47.3511 85.7434 47.0835 85.8319Z" fill="#164FF4"/>
</svg>
