<svg width="100" height="100" viewBox="0 0 100 100" fill="none" xmlns="http://www.w3.org/2000/svg">
<path d="M85.3758 10.9918L75.7014 15.0724C75.3302 15.2283 75.3302 15.7734 75.7171 15.9135L78.0543 16.8322L60.5938 34.7595L59.6343 32.4229C59.4794 32.0494 58.9376 32.0494 58.7983 32.4229L54.9442 42.2354C54.7893 42.6089 55.1762 42.9831 55.5482 42.8273L65.2226 38.7467C65.5938 38.5908 65.5938 38.0456 65.2069 37.9055L62.8696 36.9868L80.3145 19.0595L81.2739 21.3961C81.4288 21.7696 81.9707 21.7696 82.1099 21.3961L85.964 11.5837C86.1189 11.1943 85.7477 10.8359 85.3758 10.9918Z" fill="#164FF4"/>
<path d="M54.9091 86.6069V50.2539H54.8935C54.709 48.1135 53.1091 45.2546 46.9546 43.0078C42.3854 41.3411 36.3543 40.4092 29.9694 40.4092C23.5845 40.4092 17.5535 41.3264 12.9842 43.0078C7.33847 45.0714 5.52282 47.6398 5.10784 49.6878H5V86.5912C5 88.7619 6.38498 91.8653 12.9693 94.2651C17.5385 95.9318 23.5696 96.8637 29.9545 96.8637C36.3394 96.8637 42.3704 95.9465 46.9397 94.2651C53.5241 91.8653 54.9089 88.7773 54.9089 86.6065L54.9091 86.6069ZM51.2778 86.3777H51.2622C51.2778 86.4539 51.2778 86.5307 51.2778 86.592C51.2778 87.6778 49.8162 89.3896 45.6932 90.8876C41.5239 92.4161 35.9237 93.2571 29.9545 93.2571C23.9852 93.2571 18.3999 92.4315 14.2158 90.9024C10.0927 89.3888 8.63111 87.6919 8.63111 86.6069C8.63111 86.5456 8.63111 86.4849 8.64671 86.4236H8.63111V80.2321C9.73868 80.966 11.1541 81.6845 12.9698 82.3416C17.539 84.0082 23.5701 84.9402 29.955 84.9402C36.3399 84.9402 42.3709 84.023 46.9402 82.3416C48.7558 81.6845 50.1712 80.9654 51.2788 80.2321L51.2778 86.3777ZM51.2778 74.4384H51.2622C51.2778 74.5146 51.2778 74.5914 51.2778 74.6527C51.2778 75.7384 49.8162 77.4502 45.6932 78.9483C41.5239 80.4768 35.9237 81.3177 29.9545 81.3177C23.9852 81.3177 18.3999 80.4922 14.2158 78.9631C10.0927 77.4495 8.63111 75.7526 8.63111 74.6676C8.63111 74.6062 8.63111 74.5456 8.64671 74.4842H8.63111V68.2928C9.73868 69.0267 11.1541 69.7451 12.9698 70.4023C17.539 72.0689 23.5701 73.0009 29.955 73.0009C36.3399 73.0009 42.3709 72.0836 46.9402 70.4023C48.7558 69.7452 50.1712 69.0261 51.2788 68.2928L51.2778 74.4384ZM51.2778 62.4991H51.2622C51.2778 62.5752 51.2778 62.6521 51.2778 62.7134C51.2778 63.7991 49.8162 65.5109 45.6932 67.0089C41.5239 68.5374 35.9237 69.3784 29.9545 69.3784C23.9852 69.3784 18.3999 68.5528 14.2158 67.0243C10.0927 65.5107 8.63111 63.8138 8.63111 62.7287C8.63111 62.6674 8.63111 62.6068 8.64671 62.5454H8.63111V56.2468C9.73868 56.9808 11.1541 57.6992 12.9698 58.3563C17.539 60.023 23.5701 60.9549 29.955 60.9549C36.3399 60.9549 42.3709 60.0377 46.9402 58.3563C48.7558 57.6992 50.1712 56.9801 51.2788 56.2468L51.2778 62.4991ZM45.6932 54.9935C41.5239 56.522 35.9237 57.363 29.9545 57.363C23.9852 57.363 18.3999 56.5219 14.2158 54.9935C10.0927 53.4798 8.63111 51.783 8.63111 50.6979C8.63111 49.6122 10.1083 47.916 14.2158 46.4024C18.385 44.8739 23.9852 44.0329 29.9545 44.0329C35.9237 44.0329 41.5083 44.874 45.6932 46.4024C49.8162 47.916 51.2778 49.6129 51.2778 50.6979C51.2778 51.783 49.8162 53.4799 45.6932 54.9935Z" fill="#164FF4"/>
<path d="M48.3637 62.4999C48.3637 62.9519 47.8143 63.3181 47.1364 63.3181C46.4586 63.3181 45.9092 62.9519 45.9092 62.4999C45.9092 62.048 46.4586 61.6818 47.1364 61.6818C47.8143 61.6818 48.3637 62.048 48.3637 62.4999Z" fill="#164FF4"/>
<path d="M44.2724 63.7269C44.2724 64.4046 43.723 64.9545 43.0451 64.9545C42.3673 64.9545 41.8179 64.4046 41.8179 63.7269C41.8179 63.0492 42.3673 62.5 43.0451 62.5C43.723 62.5 44.2724 63.0492 44.2724 63.7269Z" fill="#164FF4"/>
<path d="M40.1823 64.5455C40.1823 65.2234 39.816 65.7728 39.3641 65.7728C38.9122 65.7728 38.5459 65.2234 38.5459 64.5455C38.5459 63.8676 38.9122 63.3182 39.3641 63.3182C39.816 63.3182 40.1823 63.8676 40.1823 64.5455Z" fill="#164FF4"/>
<path d="M48.3637 74.3639C48.3637 75.0416 47.8143 75.5908 47.1364 75.5908C46.4586 75.5908 45.9092 75.0416 45.9092 74.3639C45.9092 73.6862 46.4586 73.1362 47.1364 73.1362C47.8143 73.1362 48.3637 73.6862 48.3637 74.3639Z" fill="#164FF4"/>
<path d="M44.2724 75.5909C44.2724 76.0428 43.723 76.4091 43.0451 76.4091C42.3673 76.4091 41.8179 76.0428 41.8179 75.5909C41.8179 75.139 42.3673 74.7727 43.0451 74.7727C43.723 74.7727 44.2724 75.139 44.2724 75.5909Z" fill="#164FF4"/>
<path d="M40.1823 76.4096C40.1823 77.3131 39.816 78.0454 39.3641 78.0454C38.9122 78.0454 38.5459 77.3131 38.5459 76.4096C38.5459 75.506 38.9122 74.7727 39.3641 74.7727C39.816 74.7727 40.1823 75.506 40.1823 76.4096Z" fill="#164FF4"/>
<path d="M48.3637 86.2274C48.3637 86.6793 47.8145 87.0455 47.1368 87.0455C46.4591 87.0455 45.9092 86.6793 45.9092 86.2274C45.9092 85.7754 46.4591 85.4092 47.1368 85.4092C47.8145 85.4092 48.3637 85.7754 48.3637 86.2274Z" fill="#164FF4"/>
<path d="M45.0908 87.4542C45.0908 88.1319 44.5408 88.6818 43.8631 88.6818C43.1855 88.6818 42.6362 88.1319 42.6362 87.4542C42.6362 86.7765 43.1855 86.2273 43.8631 86.2273C44.5408 86.2273 45.0908 86.7765 45.0908 87.4542Z" fill="#164FF4"/>
<path d="M41.0004 88.2727C41.0004 88.9506 40.4505 89.5 39.7728 89.5C39.0951 89.5 38.5459 88.9506 38.5459 88.2727C38.5459 87.5948 39.0951 87.0454 39.7728 87.0454C40.4505 87.0454 41.0004 87.5948 41.0004 88.2727Z" fill="#164FF4"/>
<path d="M45.0908 2.77271H56.5454V6.86361H45.0908V2.77271Z" fill="#164FF4"/>
<path d="M5 19.9545H9.09091V31.409H5V19.9545Z" fill="#164FF4"/>
<path d="M48.3638 96.0454H54.9092V91.9545H54.1465C52.9411 93.3848 51.0946 94.7982 48.3638 96.0454Z" fill="#164FF4"/>
<path d="M59 91.9545H70.4545V96.0454H59V91.9545Z" fill="#164FF4"/>
<path d="M9.09091 42.5044V35.5H5V45.3182C6.01392 44.2815 7.37756 43.3486 9.09091 42.5044Z" fill="#164FF4"/>
<path d="M29.5459 2.77271H41.0004V6.86361H29.5459V2.77271Z" fill="#164FF4"/>
<path d="M59.8179 2.77271H72.0906V6.86361H59.8179V2.77271Z" fill="#164FF4"/>
<path d="M14 2.77271H25.4545V6.86361H14V2.77271Z" fill="#164FF4"/>
<path d="M8.81559 12.6657C8.81559 10.6738 9.87004 8.80905 11.5455 7.805L9.62191 4.40918C6.76757 6.13062 5 9.28679 5 12.6657V16.6819H8.81576L8.81559 12.6657Z" fill="#164FF4"/>
<path d="M90.9092 20.7727H95.0001V33.0454H90.9092V20.7727Z" fill="#164FF4"/>
<path d="M90.9092 51.8636H95.0001V63.3182H90.9092V51.8636Z" fill="#164FF4"/>
<path d="M74.5459 91.9545V96.0454H86.0004L85.985 91.9545H74.5459Z" fill="#164FF4"/>
<path d="M91.6706 5.22717L89.2729 8.1558C90.5253 9.2092 91.2431 10.7436 91.2431 12.3709V17.4999H95.0002V12.3716C94.9847 9.59737 93.7782 6.99386 91.6708 5.22717H91.6706Z" fill="#164FF4"/>
<path d="M90.9092 36.3182H95.0001V47.7728H90.9092V36.3182Z" fill="#164FF4"/>
<path d="M75.3638 2.77271V6.78241H85.3309C85.6286 6.78241 85.9113 6.81475 86.2084 6.86361L86.8183 2.91939C86.3271 2.82167 85.8365 2.78933 85.3453 2.78933H75.3638V2.77271Z" fill="#164FF4"/>
<path d="M90.9092 67.4092H95.0001V78.8637H90.9092V67.4092Z" fill="#164FF4"/>
<path d="M91.184 86.7184C91.184 88.5776 90.1446 90.3036 88.4541 91.2552L90.3927 94.409C93.2313 92.8023 94.9996 89.857 94.9996 86.7182V82.9545H91.1838L91.184 86.7184Z" fill="#164FF4"/>
</svg>
